<mxfile host="app.diagrams.net" agent="Mozilla/5.0 (Windows NT 10.0; Win64; x64) AppleWebKit/537.36 (KHTML, like Gecko) Chrome/131.0.0.0 Safari/537.36" version="25.0.3" pages="2">
  <diagram id="Lwp1pgzWLBalaR1xWhp8" name="Page-2">
    <mxGraphModel dx="1246" dy="1698" grid="1" gridSize="10" guides="1" tooltips="1" connect="1" arrows="1" fold="1" page="1" pageScale="1" pageWidth="850" pageHeight="1100" math="0" shadow="0">
      <root>
        <mxCell id="0" />
        <mxCell id="1" parent="0" />
        <mxCell id="3TbSqOOEeaeC1xooJYjK-1" value="&lt;span style=&quot;font-size: 30px;&quot;&gt;ADIMN&lt;/span&gt;" style="rounded=0;whiteSpace=wrap;html=1;" vertex="1" parent="1">
          <mxGeometry x="421" y="-950" width="250" height="70" as="geometry" />
        </mxCell>
        <mxCell id="3TbSqOOEeaeC1xooJYjK-2" value="" style="endArrow=classic;html=1;rounded=0;" edge="1" parent="1">
          <mxGeometry width="50" height="50" relative="1" as="geometry">
            <mxPoint x="681" y="-938" as="sourcePoint" />
            <mxPoint x="781" y="-938" as="targetPoint" />
          </mxGeometry>
        </mxCell>
        <mxCell id="3TbSqOOEeaeC1xooJYjK-3" value="" style="endArrow=classic;html=1;rounded=0;" edge="1" parent="1">
          <mxGeometry width="50" height="50" relative="1" as="geometry">
            <mxPoint x="781" y="-890" as="sourcePoint" />
            <mxPoint x="681" y="-890" as="targetPoint" />
          </mxGeometry>
        </mxCell>
        <mxCell id="3TbSqOOEeaeC1xooJYjK-4" value="" style="endArrow=classic;html=1;rounded=0;" edge="1" parent="1">
          <mxGeometry width="50" height="50" relative="1" as="geometry">
            <mxPoint x="938" y="-741.75" as="sourcePoint" />
            <mxPoint x="1098" y="-741" as="targetPoint" />
          </mxGeometry>
        </mxCell>
        <mxCell id="3TbSqOOEeaeC1xooJYjK-5" value="" style="endArrow=classic;html=1;rounded=0;" edge="1" parent="1">
          <mxGeometry width="50" height="50" relative="1" as="geometry">
            <mxPoint x="1096" y="-700" as="sourcePoint" />
            <mxPoint x="936" y="-700.25" as="targetPoint" />
          </mxGeometry>
        </mxCell>
        <mxCell id="3TbSqOOEeaeC1xooJYjK-7" value="Check dish details" style="text;strokeColor=none;align=center;fillColor=none;html=1;verticalAlign=middle;whiteSpace=wrap;rounded=0;" vertex="1" parent="1">
          <mxGeometry x="951.5" y="-764" width="116.5" height="25" as="geometry" />
        </mxCell>
        <mxCell id="3TbSqOOEeaeC1xooJYjK-8" value="Response accept/reject" style="text;strokeColor=none;align=center;fillColor=none;html=1;verticalAlign=middle;whiteSpace=wrap;rounded=0;" vertex="1" parent="1">
          <mxGeometry x="682.24" y="-915" width="102.25" height="20" as="geometry" />
        </mxCell>
        <mxCell id="3TbSqOOEeaeC1xooJYjK-9" value="Response" style="text;strokeColor=none;align=center;fillColor=none;html=1;verticalAlign=middle;whiteSpace=wrap;rounded=0;" vertex="1" parent="1">
          <mxGeometry x="974.5" y="-721.5" width="70" height="22.5" as="geometry" />
        </mxCell>
        <mxCell id="3TbSqOOEeaeC1xooJYjK-27" value="1" style="group" vertex="1" connectable="0" parent="1">
          <mxGeometry x="793" y="-980" width="130" height="130" as="geometry" />
        </mxCell>
        <mxCell id="3TbSqOOEeaeC1xooJYjK-28" value="" style="ellipse;whiteSpace=wrap;html=1;aspect=fixed;" vertex="1" parent="3TbSqOOEeaeC1xooJYjK-27">
          <mxGeometry width="130" height="130" as="geometry" />
        </mxCell>
        <mxCell id="3TbSqOOEeaeC1xooJYjK-29" value="&lt;font style=&quot;font-size: 15px;&quot;&gt;Login&lt;/font&gt;" style="text;strokeColor=none;align=center;fillColor=none;html=1;verticalAlign=middle;whiteSpace=wrap;rounded=0;" vertex="1" parent="3TbSqOOEeaeC1xooJYjK-27">
          <mxGeometry x="12.5" y="51.25" width="105" height="27.5" as="geometry" />
        </mxCell>
        <mxCell id="3TbSqOOEeaeC1xooJYjK-30" value="" style="endArrow=none;html=1;rounded=0;exitX=0.082;exitY=0.237;exitDx=0;exitDy=0;exitPerimeter=0;entryX=0.906;entryY=0.23;entryDx=0;entryDy=0;entryPerimeter=0;" edge="1" parent="3TbSqOOEeaeC1xooJYjK-27" source="3TbSqOOEeaeC1xooJYjK-28" target="3TbSqOOEeaeC1xooJYjK-28">
          <mxGeometry width="50" height="50" relative="1" as="geometry">
            <mxPoint x="35" y="30" as="sourcePoint" />
            <mxPoint x="95" y="30" as="targetPoint" />
          </mxGeometry>
        </mxCell>
        <mxCell id="3TbSqOOEeaeC1xooJYjK-31" value="&lt;font style=&quot;font-size: 17px;&quot;&gt;1.0&lt;/font&gt;" style="text;strokeColor=none;align=center;fillColor=none;html=1;verticalAlign=middle;whiteSpace=wrap;rounded=0;" vertex="1" parent="3TbSqOOEeaeC1xooJYjK-27">
          <mxGeometry x="34" y="7" width="57.5" height="20" as="geometry" />
        </mxCell>
        <mxCell id="3TbSqOOEeaeC1xooJYjK-37" value="" style="group" vertex="1" connectable="0" parent="1">
          <mxGeometry x="795" y="-615" width="130" height="130" as="geometry" />
        </mxCell>
        <mxCell id="3TbSqOOEeaeC1xooJYjK-38" value="" style="ellipse;whiteSpace=wrap;html=1;aspect=fixed;" vertex="1" parent="3TbSqOOEeaeC1xooJYjK-37">
          <mxGeometry width="130" height="130" as="geometry" />
        </mxCell>
        <mxCell id="3TbSqOOEeaeC1xooJYjK-39" value="&lt;span style=&quot;font-size: 15px;&quot;&gt;View order&lt;/span&gt;" style="text;strokeColor=none;align=center;fillColor=none;html=1;verticalAlign=middle;whiteSpace=wrap;rounded=0;" vertex="1" parent="3TbSqOOEeaeC1xooJYjK-37">
          <mxGeometry x="12.5" y="51.25" width="105" height="27.5" as="geometry" />
        </mxCell>
        <mxCell id="3TbSqOOEeaeC1xooJYjK-40" value="" style="endArrow=none;html=1;rounded=0;exitX=0.082;exitY=0.237;exitDx=0;exitDy=0;exitPerimeter=0;entryX=0.906;entryY=0.23;entryDx=0;entryDy=0;entryPerimeter=0;" edge="1" parent="3TbSqOOEeaeC1xooJYjK-37" source="3TbSqOOEeaeC1xooJYjK-38" target="3TbSqOOEeaeC1xooJYjK-38">
          <mxGeometry width="50" height="50" relative="1" as="geometry">
            <mxPoint x="35" y="30" as="sourcePoint" />
            <mxPoint x="95" y="30" as="targetPoint" />
          </mxGeometry>
        </mxCell>
        <mxCell id="3TbSqOOEeaeC1xooJYjK-41" value="&lt;font style=&quot;font-size: 17px;&quot;&gt;3.0&lt;/font&gt;" style="text;strokeColor=none;align=center;fillColor=none;html=1;verticalAlign=middle;whiteSpace=wrap;rounded=0;" vertex="1" parent="3TbSqOOEeaeC1xooJYjK-37">
          <mxGeometry x="34" y="7" width="57.5" height="20" as="geometry" />
        </mxCell>
        <mxCell id="3TbSqOOEeaeC1xooJYjK-42" value="" style="group" vertex="1" connectable="0" parent="1">
          <mxGeometry x="798" y="-443" width="130" height="130" as="geometry" />
        </mxCell>
        <mxCell id="3TbSqOOEeaeC1xooJYjK-43" value="" style="ellipse;whiteSpace=wrap;html=1;aspect=fixed;" vertex="1" parent="3TbSqOOEeaeC1xooJYjK-42">
          <mxGeometry width="130" height="130" as="geometry" />
        </mxCell>
        <mxCell id="3TbSqOOEeaeC1xooJYjK-44" value="&lt;font style=&quot;font-size: 15px;&quot;&gt;View payment&lt;/font&gt;" style="text;strokeColor=none;align=center;fillColor=none;html=1;verticalAlign=middle;whiteSpace=wrap;rounded=0;" vertex="1" parent="3TbSqOOEeaeC1xooJYjK-42">
          <mxGeometry x="12.5" y="51.25" width="105" height="27.5" as="geometry" />
        </mxCell>
        <mxCell id="3TbSqOOEeaeC1xooJYjK-45" value="" style="endArrow=none;html=1;rounded=0;exitX=0.082;exitY=0.237;exitDx=0;exitDy=0;exitPerimeter=0;entryX=0.906;entryY=0.23;entryDx=0;entryDy=0;entryPerimeter=0;" edge="1" parent="3TbSqOOEeaeC1xooJYjK-42" source="3TbSqOOEeaeC1xooJYjK-43" target="3TbSqOOEeaeC1xooJYjK-43">
          <mxGeometry width="50" height="50" relative="1" as="geometry">
            <mxPoint x="35" y="30" as="sourcePoint" />
            <mxPoint x="95" y="30" as="targetPoint" />
          </mxGeometry>
        </mxCell>
        <mxCell id="3TbSqOOEeaeC1xooJYjK-46" value="&lt;font style=&quot;font-size: 17px;&quot;&gt;4.0&lt;/font&gt;" style="text;strokeColor=none;align=center;fillColor=none;html=1;verticalAlign=middle;whiteSpace=wrap;rounded=0;" vertex="1" parent="3TbSqOOEeaeC1xooJYjK-42">
          <mxGeometry x="34" y="7" width="57.5" height="20" as="geometry" />
        </mxCell>
        <mxCell id="3TbSqOOEeaeC1xooJYjK-63" value="Request for Login" style="text;strokeColor=none;align=center;fillColor=none;html=1;verticalAlign=middle;whiteSpace=wrap;rounded=0;" vertex="1" parent="1">
          <mxGeometry x="682.24" y="-970" width="100" height="30" as="geometry" />
        </mxCell>
        <mxCell id="3TbSqOOEeaeC1xooJYjK-73" value="" style="endArrow=classic;html=1;rounded=0;" edge="1" parent="1">
          <mxGeometry width="50" height="50" relative="1" as="geometry">
            <mxPoint x="640" y="-740" as="sourcePoint" />
            <mxPoint x="790" y="-740" as="targetPoint" />
          </mxGeometry>
        </mxCell>
        <mxCell id="3TbSqOOEeaeC1xooJYjK-74" value="" style="endArrow=none;html=1;rounded=0;entryX=0.56;entryY=1;entryDx=0;entryDy=0;entryPerimeter=0;" edge="1" parent="1">
          <mxGeometry width="50" height="50" relative="1" as="geometry">
            <mxPoint x="640" y="-740" as="sourcePoint" />
            <mxPoint x="640" y="-880" as="targetPoint" />
          </mxGeometry>
        </mxCell>
        <mxCell id="3TbSqOOEeaeC1xooJYjK-75" value="" style="endArrow=none;html=1;rounded=0;" edge="1" parent="1">
          <mxGeometry width="50" height="50" relative="1" as="geometry">
            <mxPoint x="790" y="-350" as="sourcePoint" />
            <mxPoint x="470" y="-350" as="targetPoint" />
          </mxGeometry>
        </mxCell>
        <mxCell id="3TbSqOOEeaeC1xooJYjK-87" value="" style="endArrow=classic;html=1;rounded=0;" edge="1" parent="1">
          <mxGeometry width="50" height="50" relative="1" as="geometry">
            <mxPoint x="440" y="-250" as="sourcePoint" />
            <mxPoint x="784.49" y="-250" as="targetPoint" />
          </mxGeometry>
        </mxCell>
        <mxCell id="3TbSqOOEeaeC1xooJYjK-89" value="Request for report" style="text;strokeColor=none;align=center;fillColor=none;html=1;verticalAlign=middle;whiteSpace=wrap;rounded=0;" vertex="1" parent="1">
          <mxGeometry x="625" y="-278.5" width="113" height="30" as="geometry" />
        </mxCell>
        <mxCell id="3TbSqOOEeaeC1xooJYjK-91" value="" style="endArrow=none;html=1;rounded=0;" edge="1" parent="1">
          <mxGeometry width="50" height="50" relative="1" as="geometry">
            <mxPoint x="785.24" y="-210" as="sourcePoint" />
            <mxPoint x="423" y="-210" as="targetPoint" />
          </mxGeometry>
        </mxCell>
        <mxCell id="3TbSqOOEeaeC1xooJYjK-94" value="Respose accept / reject" style="text;strokeColor=none;align=center;fillColor=none;html=1;verticalAlign=middle;whiteSpace=wrap;rounded=0;" vertex="1" parent="1">
          <mxGeometry x="614" y="-232.5" width="135" height="21" as="geometry" />
        </mxCell>
        <mxCell id="3TbSqOOEeaeC1xooJYjK-99" value="" style="endArrow=classic;html=1;rounded=0;entryX=0.419;entryY=0.996;entryDx=0;entryDy=0;entryPerimeter=0;" edge="1" parent="1" target="3TbSqOOEeaeC1xooJYjK-132">
          <mxGeometry width="50" height="50" relative="1" as="geometry">
            <mxPoint x="1180" y="-244" as="sourcePoint" />
            <mxPoint x="1180" y="-320" as="targetPoint" />
          </mxGeometry>
        </mxCell>
        <mxCell id="3TbSqOOEeaeC1xooJYjK-100" value="" style="endArrow=classic;html=1;rounded=0;" edge="1" parent="1">
          <mxGeometry width="50" height="50" relative="1" as="geometry">
            <mxPoint x="1210" y="-205" as="sourcePoint" />
            <mxPoint x="939" y="-205" as="targetPoint" />
          </mxGeometry>
        </mxCell>
        <mxCell id="3TbSqOOEeaeC1xooJYjK-102" value="Generate Report for payment&amp;nbsp;" style="text;strokeColor=none;align=center;fillColor=none;html=1;verticalAlign=middle;whiteSpace=wrap;rounded=0;" vertex="1" parent="1">
          <mxGeometry x="936.5" y="-266.5" width="193.5" height="13" as="geometry" />
        </mxCell>
        <mxCell id="3TbSqOOEeaeC1xooJYjK-105" value="&lt;span style=&quot;font-size: 14px;&quot;&gt;DISH_TABLE&lt;/span&gt;" style="html=1;dashed=0;whiteSpace=wrap;shape=partialRectangle;right=0;" vertex="1" parent="1">
          <mxGeometry x="1105" y="-752" width="173.5" height="60" as="geometry" />
        </mxCell>
        <mxCell id="3TbSqOOEeaeC1xooJYjK-107" value="&lt;span style=&quot;font-size: 14px;&quot;&gt;ORDER_TABLE&lt;/span&gt;" style="html=1;dashed=0;whiteSpace=wrap;shape=partialRectangle;right=0;" vertex="1" parent="1">
          <mxGeometry x="1105" y="-600" width="173.5" height="95" as="geometry" />
        </mxCell>
        <mxCell id="3TbSqOOEeaeC1xooJYjK-109" value="1" style="group" vertex="1" connectable="0" parent="1">
          <mxGeometry x="795" y="-783" width="130" height="130" as="geometry" />
        </mxCell>
        <mxCell id="3TbSqOOEeaeC1xooJYjK-110" value="" style="ellipse;whiteSpace=wrap;html=1;aspect=fixed;" vertex="1" parent="3TbSqOOEeaeC1xooJYjK-109">
          <mxGeometry width="130" height="130" as="geometry" />
        </mxCell>
        <mxCell id="3TbSqOOEeaeC1xooJYjK-111" value="&lt;font style=&quot;font-size: 15px;&quot;&gt;Manage Dish&lt;/font&gt;" style="text;strokeColor=none;align=center;fillColor=none;html=1;verticalAlign=middle;whiteSpace=wrap;rounded=0;" vertex="1" parent="3TbSqOOEeaeC1xooJYjK-109">
          <mxGeometry x="12.5" y="51.25" width="105" height="27.5" as="geometry" />
        </mxCell>
        <mxCell id="3TbSqOOEeaeC1xooJYjK-112" value="" style="endArrow=none;html=1;rounded=0;exitX=0.082;exitY=0.237;exitDx=0;exitDy=0;exitPerimeter=0;entryX=0.906;entryY=0.23;entryDx=0;entryDy=0;entryPerimeter=0;" edge="1" parent="3TbSqOOEeaeC1xooJYjK-109" source="3TbSqOOEeaeC1xooJYjK-110" target="3TbSqOOEeaeC1xooJYjK-110">
          <mxGeometry width="50" height="50" relative="1" as="geometry">
            <mxPoint x="35" y="30" as="sourcePoint" />
            <mxPoint x="95" y="30" as="targetPoint" />
          </mxGeometry>
        </mxCell>
        <mxCell id="3TbSqOOEeaeC1xooJYjK-113" value="&lt;font style=&quot;font-size: 17px;&quot;&gt;2.0&lt;/font&gt;" style="text;strokeColor=none;align=center;fillColor=none;html=1;verticalAlign=middle;whiteSpace=wrap;rounded=0;" vertex="1" parent="3TbSqOOEeaeC1xooJYjK-109">
          <mxGeometry x="34" y="7" width="57.5" height="20" as="geometry" />
        </mxCell>
        <mxCell id="3TbSqOOEeaeC1xooJYjK-114" value="&lt;font style=&quot;font-size: 15px;&quot;&gt;Dish Manage&amp;nbsp;&lt;/font&gt;&lt;div&gt;&lt;font style=&quot;font-size: 15px;&quot;&gt;add, update,delete&lt;/font&gt;&lt;/div&gt;" style="text;strokeColor=none;align=center;fillColor=none;html=1;verticalAlign=middle;whiteSpace=wrap;rounded=0;" vertex="1" parent="1">
          <mxGeometry x="641.61" y="-780" width="139.63" height="27.5" as="geometry" />
        </mxCell>
        <mxCell id="3TbSqOOEeaeC1xooJYjK-116" value="" style="endArrow=none;html=1;rounded=0;" edge="1" parent="1">
          <mxGeometry width="50" height="50" relative="1" as="geometry">
            <mxPoint x="791" y="-692" as="sourcePoint" />
            <mxPoint x="600" y="-692" as="targetPoint" />
          </mxGeometry>
        </mxCell>
        <mxCell id="3TbSqOOEeaeC1xooJYjK-117" value="" style="endArrow=classic;html=1;rounded=0;entryX=0.468;entryY=1.029;entryDx=0;entryDy=0;entryPerimeter=0;" edge="1" parent="1">
          <mxGeometry width="50" height="50" relative="1" as="geometry">
            <mxPoint x="600" y="-692" as="sourcePoint" />
            <mxPoint x="600" y="-882" as="targetPoint" />
          </mxGeometry>
        </mxCell>
        <mxCell id="3TbSqOOEeaeC1xooJYjK-122" value="" style="endArrow=none;html=1;rounded=0;entryX=0.61;entryY=1.026;entryDx=0;entryDy=0;entryPerimeter=0;" edge="1" parent="1" target="3TbSqOOEeaeC1xooJYjK-1">
          <mxGeometry width="50" height="50" relative="1" as="geometry">
            <mxPoint x="575.49" y="-575.5" as="sourcePoint" />
            <mxPoint x="575" y="-870" as="targetPoint" />
          </mxGeometry>
        </mxCell>
        <mxCell id="3TbSqOOEeaeC1xooJYjK-123" value="" style="endArrow=classic;html=1;rounded=0;entryX=0.462;entryY=1.019;entryDx=0;entryDy=0;entryPerimeter=0;" edge="1" parent="1" target="3TbSqOOEeaeC1xooJYjK-1">
          <mxGeometry width="50" height="50" relative="1" as="geometry">
            <mxPoint x="535.49" y="-527.5" as="sourcePoint" />
            <mxPoint x="540" y="-870" as="targetPoint" />
          </mxGeometry>
        </mxCell>
        <mxCell id="3TbSqOOEeaeC1xooJYjK-124" value="" style="endArrow=none;html=1;rounded=0;" edge="1" parent="1">
          <mxGeometry width="50" height="50" relative="1" as="geometry">
            <mxPoint x="790" y="-527" as="sourcePoint" />
            <mxPoint x="535" y="-527" as="targetPoint" />
          </mxGeometry>
        </mxCell>
        <mxCell id="3TbSqOOEeaeC1xooJYjK-125" value="" style="endArrow=classic;html=1;rounded=0;" edge="1" parent="1">
          <mxGeometry width="50" height="50" relative="1" as="geometry">
            <mxPoint x="575" y="-575" as="sourcePoint" />
            <mxPoint x="790" y="-575" as="targetPoint" />
          </mxGeometry>
        </mxCell>
        <mxCell id="3TbSqOOEeaeC1xooJYjK-126" value="" style="endArrow=classic;html=1;rounded=0;" edge="1" parent="1">
          <mxGeometry width="50" height="50" relative="1" as="geometry">
            <mxPoint x="932" y="-573" as="sourcePoint" />
            <mxPoint x="1092" y="-572.25" as="targetPoint" />
          </mxGeometry>
        </mxCell>
        <mxCell id="3TbSqOOEeaeC1xooJYjK-127" value="" style="endArrow=classic;html=1;rounded=0;" edge="1" parent="1">
          <mxGeometry width="50" height="50" relative="1" as="geometry">
            <mxPoint x="1090" y="-531.25" as="sourcePoint" />
            <mxPoint x="930" y="-531.5" as="targetPoint" />
          </mxGeometry>
        </mxCell>
        <mxCell id="3TbSqOOEeaeC1xooJYjK-128" value="" style="endArrow=classic;html=1;rounded=0;entryX=0.206;entryY=1.042;entryDx=0;entryDy=0;entryPerimeter=0;" edge="1" parent="1" target="3TbSqOOEeaeC1xooJYjK-1">
          <mxGeometry width="50" height="50" relative="1" as="geometry">
            <mxPoint x="469.49" y="-349.5" as="sourcePoint" />
            <mxPoint x="471" y="-870" as="targetPoint" />
          </mxGeometry>
        </mxCell>
        <mxCell id="3TbSqOOEeaeC1xooJYjK-129" value="" style="endArrow=none;html=1;rounded=0;entryX=0.356;entryY=1;entryDx=0;entryDy=0;entryPerimeter=0;" edge="1" parent="1" target="3TbSqOOEeaeC1xooJYjK-1">
          <mxGeometry width="50" height="50" relative="1" as="geometry">
            <mxPoint x="509.49" y="-394.5" as="sourcePoint" />
            <mxPoint x="509" y="-800" as="targetPoint" />
          </mxGeometry>
        </mxCell>
        <mxCell id="3TbSqOOEeaeC1xooJYjK-130" value="" style="endArrow=classic;html=1;rounded=0;" edge="1" parent="1">
          <mxGeometry width="50" height="50" relative="1" as="geometry">
            <mxPoint x="510" y="-395" as="sourcePoint" />
            <mxPoint x="790" y="-395" as="targetPoint" />
          </mxGeometry>
        </mxCell>
        <mxCell id="3TbSqOOEeaeC1xooJYjK-132" value="&lt;span style=&quot;font-size: 14px;&quot;&gt;PAYMENT_TABLE&lt;/span&gt;" style="html=1;dashed=0;whiteSpace=wrap;shape=partialRectangle;right=0;" vertex="1" parent="1">
          <mxGeometry x="1107" y="-421" width="173.5" height="95" as="geometry" />
        </mxCell>
        <mxCell id="3TbSqOOEeaeC1xooJYjK-133" value="" style="endArrow=classic;html=1;rounded=0;" edge="1" parent="1">
          <mxGeometry width="50" height="50" relative="1" as="geometry">
            <mxPoint x="934" y="-394" as="sourcePoint" />
            <mxPoint x="1094" y="-393.25" as="targetPoint" />
          </mxGeometry>
        </mxCell>
        <mxCell id="3TbSqOOEeaeC1xooJYjK-134" value="" style="endArrow=classic;html=1;rounded=0;" edge="1" parent="1">
          <mxGeometry width="50" height="50" relative="1" as="geometry">
            <mxPoint x="1092" y="-352.25" as="sourcePoint" />
            <mxPoint x="932" y="-352.5" as="targetPoint" />
          </mxGeometry>
        </mxCell>
        <mxCell id="3TbSqOOEeaeC1xooJYjK-136" value="" style="endArrow=classic;html=1;rounded=0;entryX=0.086;entryY=1.006;entryDx=0;entryDy=0;entryPerimeter=0;" edge="1" parent="1">
          <mxGeometry width="50" height="50" relative="1" as="geometry">
            <mxPoint x="423" y="-210" as="sourcePoint" />
            <mxPoint x="425.5" y="-878.9999999999999" as="targetPoint" />
          </mxGeometry>
        </mxCell>
        <mxCell id="3TbSqOOEeaeC1xooJYjK-138" value="" style="endArrow=none;html=1;rounded=0;entryX=0.08;entryY=1.031;entryDx=0;entryDy=0;entryPerimeter=0;" edge="1" parent="1" target="3TbSqOOEeaeC1xooJYjK-1">
          <mxGeometry width="50" height="50" relative="1" as="geometry">
            <mxPoint x="441" y="-250" as="sourcePoint" />
            <mxPoint x="440.51" y="-850" as="targetPoint" />
          </mxGeometry>
        </mxCell>
        <mxCell id="3TbSqOOEeaeC1xooJYjK-140" value="" style="shape=document;whiteSpace=wrap;html=1;boundedLbl=1;" vertex="1" parent="1">
          <mxGeometry x="795" y="-269" width="132" height="88" as="geometry" />
        </mxCell>
        <mxCell id="3TbSqOOEeaeC1xooJYjK-141" value="" style="endArrow=none;html=1;rounded=0;exitX=-0.014;exitY=0.331;exitDx=0;exitDy=0;exitPerimeter=0;entryX=0.906;entryY=0.23;entryDx=0;entryDy=0;entryPerimeter=0;" edge="1" parent="1">
          <mxGeometry width="50" height="50" relative="1" as="geometry">
            <mxPoint x="794.152" y="-240.87199999999984" as="sourcePoint" />
            <mxPoint x="928" y="-241" as="targetPoint" />
          </mxGeometry>
        </mxCell>
        <mxCell id="3TbSqOOEeaeC1xooJYjK-142" value="&lt;font style=&quot;font-size: 17px;&quot;&gt;5.0&lt;/font&gt;" style="text;strokeColor=none;align=center;fillColor=none;html=1;verticalAlign=middle;whiteSpace=wrap;rounded=0;" vertex="1" parent="1">
          <mxGeometry x="831" y="-264" width="57.5" height="20" as="geometry" />
        </mxCell>
        <mxCell id="3TbSqOOEeaeC1xooJYjK-145" value="&lt;font style=&quot;font-size: 15px;&quot;&gt;Report&lt;/font&gt;" style="text;strokeColor=none;align=center;fillColor=none;html=1;verticalAlign=middle;whiteSpace=wrap;rounded=0;" vertex="1" parent="1">
          <mxGeometry x="808.5" y="-236" width="105" height="27.5" as="geometry" />
        </mxCell>
        <mxCell id="3TbSqOOEeaeC1xooJYjK-146" value="Response accept/reject" style="text;strokeColor=none;align=center;fillColor=none;html=1;verticalAlign=middle;whiteSpace=wrap;rounded=0;" vertex="1" parent="1">
          <mxGeometry x="637.61" y="-717" width="144" height="20" as="geometry" />
        </mxCell>
        <mxCell id="3TbSqOOEeaeC1xooJYjK-147" value="Request for view order" style="text;strokeColor=none;align=center;fillColor=none;html=1;verticalAlign=middle;whiteSpace=wrap;rounded=0;" vertex="1" parent="1">
          <mxGeometry x="641.61" y="-615" width="100" height="30" as="geometry" />
        </mxCell>
        <mxCell id="3TbSqOOEeaeC1xooJYjK-149" value="Check order details" style="text;strokeColor=none;align=center;fillColor=none;html=1;verticalAlign=middle;whiteSpace=wrap;rounded=0;" vertex="1" parent="1">
          <mxGeometry x="942" y="-610" width="116.5" height="25" as="geometry" />
        </mxCell>
        <mxCell id="3TbSqOOEeaeC1xooJYjK-150" value="Response accept/reject" style="text;strokeColor=none;align=center;fillColor=none;html=1;verticalAlign=middle;whiteSpace=wrap;rounded=0;" vertex="1" parent="1">
          <mxGeometry x="613.37" y="-556" width="148.63" height="20" as="geometry" />
        </mxCell>
        <mxCell id="3TbSqOOEeaeC1xooJYjK-151" value="Response" style="text;strokeColor=none;align=center;fillColor=none;html=1;verticalAlign=middle;whiteSpace=wrap;rounded=0;" vertex="1" parent="1">
          <mxGeometry x="968.5" y="-554" width="70" height="22.5" as="geometry" />
        </mxCell>
        <mxCell id="3TbSqOOEeaeC1xooJYjK-152" value="Request for view payment" style="text;strokeColor=none;align=center;fillColor=none;html=1;verticalAlign=middle;whiteSpace=wrap;rounded=0;" vertex="1" parent="1">
          <mxGeometry x="601" y="-426" width="158.5" height="30" as="geometry" />
        </mxCell>
        <mxCell id="3TbSqOOEeaeC1xooJYjK-153" value="Check payment details" style="text;strokeColor=none;align=center;fillColor=none;html=1;verticalAlign=middle;whiteSpace=wrap;rounded=0;" vertex="1" parent="1">
          <mxGeometry x="942" y="-421" width="140" height="25" as="geometry" />
        </mxCell>
        <mxCell id="3TbSqOOEeaeC1xooJYjK-154" value="Response" style="text;strokeColor=none;align=center;fillColor=none;html=1;verticalAlign=middle;whiteSpace=wrap;rounded=0;" vertex="1" parent="1">
          <mxGeometry x="978" y="-373" width="70" height="22.5" as="geometry" />
        </mxCell>
        <mxCell id="3TbSqOOEeaeC1xooJYjK-155" value="Response accept/reject" style="text;strokeColor=none;align=center;fillColor=none;html=1;verticalAlign=middle;whiteSpace=wrap;rounded=0;" vertex="1" parent="1">
          <mxGeometry x="594" y="-374.5" width="163" height="20" as="geometry" />
        </mxCell>
        <mxCell id="3TbSqOOEeaeC1xooJYjK-158" value="Generate Report for Order" style="text;strokeColor=none;align=center;fillColor=none;html=1;verticalAlign=middle;whiteSpace=wrap;rounded=0;" vertex="1" parent="1">
          <mxGeometry x="950.5" y="-224.5" width="148" height="13" as="geometry" />
        </mxCell>
        <mxCell id="3TbSqOOEeaeC1xooJYjK-159" value="" style="endArrow=none;html=1;rounded=0;" edge="1" parent="1">
          <mxGeometry width="50" height="50" relative="1" as="geometry">
            <mxPoint x="1180" y="-245" as="sourcePoint" />
            <mxPoint x="940" y="-245" as="targetPoint" />
          </mxGeometry>
        </mxCell>
        <mxCell id="3TbSqOOEeaeC1xooJYjK-160" value="" style="endArrow=none;html=1;rounded=0;exitX=0.588;exitY=1.006;exitDx=0;exitDy=0;exitPerimeter=0;" edge="1" parent="1">
          <mxGeometry width="50" height="50" relative="1" as="geometry">
            <mxPoint x="1209.018" y="-325.71000000000015" as="sourcePoint" />
            <mxPoint x="1210" y="-204.28" as="targetPoint" />
          </mxGeometry>
        </mxCell>
        <mxCell id="FyqrWjoDdgcM4q49aba6-2" value="" style="endArrow=classic;html=1;rounded=0;entryX=0.482;entryY=-0.014;entryDx=0;entryDy=0;entryPerimeter=0;" edge="1" parent="1" target="3TbSqOOEeaeC1xooJYjK-110">
          <mxGeometry width="50" height="50" relative="1" as="geometry">
            <mxPoint x="858" y="-850" as="sourcePoint" />
            <mxPoint x="858" y="-790" as="targetPoint" />
          </mxGeometry>
        </mxCell>
        <mxCell id="FyqrWjoDdgcM4q49aba6-3" value="" style="endArrow=classic;html=1;rounded=0;entryX=0.482;entryY=-0.014;entryDx=0;entryDy=0;entryPerimeter=0;exitX=0.5;exitY=1;exitDx=0;exitDy=0;" edge="1" parent="1" source="3TbSqOOEeaeC1xooJYjK-110">
          <mxGeometry width="50" height="50" relative="1" as="geometry">
            <mxPoint x="859.8" y="-640" as="sourcePoint" />
            <mxPoint x="860.2099999999999" y="-615" as="targetPoint" />
          </mxGeometry>
        </mxCell>
        <mxCell id="FyqrWjoDdgcM4q49aba6-5" value="" style="endArrow=classic;html=1;rounded=0;entryX=0.482;entryY=0;entryDx=0;entryDy=0;entryPerimeter=0;exitX=0.5;exitY=1;exitDx=0;exitDy=0;" edge="1" parent="1" target="3TbSqOOEeaeC1xooJYjK-43">
          <mxGeometry width="50" height="50" relative="1" as="geometry">
            <mxPoint x="860.71" y="-484" as="sourcePoint" />
            <mxPoint x="860.92" y="-446" as="targetPoint" />
          </mxGeometry>
        </mxCell>
        <mxCell id="FyqrWjoDdgcM4q49aba6-6" value="" style="endArrow=classic;html=1;rounded=0;exitX=0.5;exitY=1;exitDx=0;exitDy=0;" edge="1" parent="1">
          <mxGeometry width="50" height="50" relative="1" as="geometry">
            <mxPoint x="862.86" y="-313" as="sourcePoint" />
            <mxPoint x="863" y="-270" as="targetPoint" />
          </mxGeometry>
        </mxCell>
      </root>
    </mxGraphModel>
  </diagram>
  <diagram id="tHrvw1N85ukLDPV54fvb" name="Page-3">
    <mxGraphModel dx="1246" dy="598" grid="1" gridSize="10" guides="1" tooltips="1" connect="1" arrows="1" fold="1" page="1" pageScale="1" pageWidth="850" pageHeight="1100" math="0" shadow="0">
      <root>
        <mxCell id="0" />
        <mxCell id="1" parent="0" />
      </root>
    </mxGraphModel>
  </diagram>
</mxfile>
